#Comment line ignore any data following # character 
#Hierarchical Translation and Rotation (.htr) file 
[Header]	
#Header keywords are followed by a single value 
FileType HTR		#Single word string
DataType HTRS		#Translation followed by rotation and scale data
FileVersion 1		#integer
NumSegments 64		#integer
NumFrames 3		#integer
DataFrameRate 30		#integer, data frame rate in this file
EulerRotationOrder ZYX
CalibrationUnits mm
RotationUnits Degrees
GlobalAxisofGravity Y
BoneLengthAxis Y
ScaleFactor 1.00
[SegmentNames&Hierarchy]
#CHILD	PARENT
Pinger_Root GLOBAL
Pelvis Pinger_Root
L_Hip Pelvis
R_Hip Pelvis
Rear_Leg01 Pelvis
Spine1 Pelvis
L_Leg01 L_Hip
L_Leg02 L_Leg01
L_Leg03 L_Leg02
L_Foot L_Leg03
L_Toe1_01 L_Foot
L_Toe2_01 L_Foot
L_Toe3_01 L_Foot
planeAlignerLeft L_Foot
L_Toe1_02 L_Toe1_01
L_Toe1_03 L_Toe1_02
L_Toe2_02 L_Toe2_01
L_Toe2_03 L_Toe2_02
L_Toe3_02 L_Toe3_01
L_Toe3_03 L_Toe3_02
planeLockWeightLeft planeAlignerLeft
R_Leg01 R_Hip
R_Leg02 R_Leg01
R_Leg03 R_Leg02
R_Foot R_Leg03
planeAlignerRight R_Foot
R_Toe1_01 R_Foot
R_Toe2_01 R_Foot
R_Toe3_01 R_Foot
planeLockWeightRight planeAlignerRight
R_Toe1_02 R_Toe1_01
R_Toe1_03 R_Toe1_02
R_Toe2_02 R_Toe2_01
R_Toe2_03 R_Toe2_02
R_Toe3_02 R_Toe3_01
R_Toe3_03 R_Toe3_02
Rear_Leg02 Rear_Leg01
Rear_Leg03 Rear_Leg02
Rear_Leg04 Rear_Leg03
Rear_Foot Rear_Leg04
planeAlignerCenter Rear_Foot
Rear_Toe1_01 Rear_Foot
Rear_Toe2_01 Rear_Foot
Rear_Toe3_01 Rear_Foot
planeLockWeightCenter planeAlignerCenter
Rear_Toe1_02 Rear_Toe1_01
Rear_Toe1_03 Rear_Toe1_02
Rear_Toe2_02 Rear_Toe2_01
Rear_Toe2_03 Rear_Toe2_02
Rear_Toe3_02 Rear_Toe3_01
Rear_Toe3_03 Rear_Toe3_02
Back_Bone Spine1
Head Spine1
Motor_Bone Back_Bone
Ping_Mechanism Back_Bone
BN_LookIK Head
bottomMouth Head
L_Mouth01 Head
L_mouthFront Head
mouthGun Head
R_Mouth01 Head
R_mouthFront Head
TopMouth Head
weapon_bone Head
[BasePosition]
#SegmentName Tx, Ty, Tz, Rx, Ry, Rz, BoneLength
Pinger_Root 0.000000 0.000000 0.000000 -90.000000 0.000000 0.000000 10.000000 
Pelvis 0.000000 0.000000 0.000000 0.000000 0.000000 0.000000 10.000000 
L_Hip 0.000000 0.000000 0.000000 0.000000 0.000000 0.000000 10.000000 
R_Hip 0.000000 0.000000 0.000000 0.000000 0.000000 0.000000 10.000000 
Rear_Leg01 0.000000 0.000000 0.000000 0.000000 0.000000 0.000000 10.000000 
Spine1 0.000000 0.000000 0.000000 0.000000 0.000000 0.000000 10.000000 
L_Leg01 0.000000 0.000000 0.000000 0.000000 0.000000 0.000000 10.000000 
L_Leg02 0.000000 0.000000 0.000000 0.000000 0.000000 0.000000 10.000000 
L_Leg03 0.000000 0.000000 0.000000 0.000000 0.000000 0.000000 10.000000 
L_Foot 0.000000 0.000000 0.000000 0.000000 0.000000 0.000000 10.000000 
L_Toe1_01 0.000000 0.000000 0.000000 0.000000 0.000000 0.000000 10.000000 
L_Toe2_01 0.000000 0.000000 0.000000 0.000000 0.000000 0.000000 10.000000 
L_Toe3_01 0.000000 0.000000 0.000000 0.000000 0.000000 0.000000 10.000000 
planeAlignerLeft 0.000000 0.000000 0.000000 0.000000 0.000000 0.000000 10.000000 
L_Toe1_02 0.000000 0.000000 0.000000 0.000000 0.000000 0.000000 10.000000 
L_Toe1_03 0.000000 0.000000 0.000000 0.000000 0.000000 0.000000 10.000000 
L_Toe2_02 0.000000 0.000000 0.000000 0.000000 0.000000 0.000000 10.000000 
L_Toe2_03 0.000000 0.000000 0.000000 0.000000 0.000000 0.000000 10.000000 
L_Toe3_02 0.000000 0.000000 0.000000 0.000000 0.000000 0.000000 10.000000 
L_Toe3_03 0.000000 0.000000 0.000000 0.000000 0.000000 0.000000 10.000000 
planeLockWeightLeft 0.000000 0.000000 0.000000 0.000000 0.000000 0.000000 10.000000 
R_Leg01 0.000000 0.000000 0.000000 0.000000 0.000000 0.000000 10.000000 
R_Leg02 0.000000 0.000000 0.000000 0.000000 0.000000 0.000000 10.000000 
R_Leg03 0.000000 0.000000 0.000000 0.000000 0.000000 0.000000 10.000000 
R_Foot 0.000000 0.000000 0.000000 0.000000 0.000000 0.000000 10.000000 
planeAlignerRight 0.000000 0.000000 0.000000 0.000000 0.000000 0.000000 10.000000 
R_Toe1_01 0.000000 0.000000 0.000000 0.000000 0.000000 0.000000 10.000000 
R_Toe2_01 0.000000 0.000000 0.000000 0.000000 0.000000 0.000000 10.000000 
R_Toe3_01 0.000000 0.000000 0.000000 0.000000 0.000000 0.000000 10.000000 
planeLockWeightRight 0.000000 0.000000 0.000000 0.000000 0.000000 0.000000 10.000000 
R_Toe1_02 0.000000 0.000000 0.000000 0.000000 0.000000 0.000000 10.000000 
R_Toe1_03 0.000000 0.000000 0.000000 0.000000 0.000000 0.000000 10.000000 
R_Toe2_02 0.000000 0.000000 0.000000 0.000000 0.000000 0.000000 10.000000 
R_Toe2_03 0.000000 0.000000 0.000000 0.000000 0.000000 0.000000 10.000000 
R_Toe3_02 0.000000 0.000000 0.000000 0.000000 0.000000 0.000000 10.000000 
R_Toe3_03 0.000000 0.000000 0.000000 0.000000 0.000000 0.000000 10.000000 
Rear_Leg02 0.000000 0.000000 0.000000 0.000000 0.000000 0.000000 10.000000 
Rear_Leg03 0.000000 0.000000 0.000000 0.000000 0.000000 0.000000 10.000000 
Rear_Leg04 0.000000 0.000000 0.000000 0.000000 0.000000 0.000000 10.000000 
Rear_Foot 0.000000 0.000000 0.000000 0.000000 0.000000 0.000000 10.000000 
planeAlignerCenter 0.000000 0.000000 0.000000 0.000000 0.000000 0.000000 10.000000 
Rear_Toe1_01 0.000000 0.000000 0.000000 0.000000 0.000000 0.000000 10.000000 
Rear_Toe2_01 0.000000 0.000000 0.000000 0.000000 0.000000 0.000000 10.000000 
Rear_Toe3_01 0.000000 0.000000 0.000000 0.000000 0.000000 0.000000 10.000000 
planeLockWeightCenter 0.000000 0.000000 0.000000 0.000000 0.000000 0.000000 10.000000 
Rear_Toe1_02 0.000000 0.000000 0.000000 0.000000 0.000000 0.000000 10.000000 
Rear_Toe1_03 0.000000 0.000000 0.000000 0.000000 0.000000 0.000000 10.000000 
Rear_Toe2_02 0.000000 0.000000 0.000000 0.000000 0.000000 0.000000 10.000000 
Rear_Toe2_03 0.000000 0.000000 0.000000 0.000000 0.000000 0.000000 10.000000 
Rear_Toe3_02 0.000000 0.000000 0.000000 0.000000 0.000000 0.000000 10.000000 
Rear_Toe3_03 0.000000 0.000000 0.000000 0.000000 0.000000 0.000000 10.000000 
Back_Bone 0.000000 0.000000 0.000000 0.000000 0.000000 0.000000 10.000000 
Head 0.000000 0.000000 0.000000 0.000000 0.000000 0.000000 10.000000 
Motor_Bone 0.000000 0.000000 0.000000 0.000000 0.000000 0.000000 10.000000 
Ping_Mechanism 0.000000 0.000000 0.000000 0.000000 0.000000 0.000000 10.000000 
BN_LookIK 0.000000 0.000000 0.000000 0.000000 0.000000 0.000000 10.000000 
bottomMouth 0.000000 0.000000 0.000000 0.000000 0.000000 0.000000 10.000000 
L_Mouth01 0.000000 0.000000 0.000000 0.000000 0.000000 0.000000 10.000000 
L_mouthFront 0.000000 0.000000 0.000000 0.000000 0.000000 0.000000 10.000000 
mouthGun 0.000000 0.000000 0.000000 0.000000 0.000000 0.000000 10.000000 
R_Mouth01 0.000000 0.000000 0.000000 0.000000 0.000000 0.000000 10.000000 
R_mouthFront 0.000000 0.000000 0.000000 0.000000 0.000000 0.000000 10.000000 
TopMouth 0.000000 0.000000 0.000000 0.000000 0.000000 0.000000 10.000000 
weapon_bone 0.000000 0.000000 0.000000 0.000000 0.000000 0.000000 10.000000 
#Beginning of Data. Separated by tabs
#Fr	Tx	Ty	Tz	Rx	Ry	Rz	SF
[Pinger_Root]
51 2500.000000 0.000220 0.000000 -0.000075 -0.000000 -0.000020 2500.000000
52 2500.000000 0.000220 0.000000 -0.000075 -0.000000 -0.000020 2500.000000
53 2500.000000 0.000220 0.000000 -0.000075 -0.000000 -0.000020 2500.000000
[Pelvis]
51 418.540161 880.385132 4202.428711 -98.318237 -69.303734 84.625153 4314.007813
52 409.620972 838.589783 4144.976074 -93.959885 -70.939850 80.936829 4248.747070
53 398.567200 795.541748 4097.881348 -88.880646 -72.468079 76.524765 4193.372559
[L_Hip]
51 5.766392 125.831482 872.656799 166.684418 -74.620682 104.154259 881.701050
52 5.766392 125.831482 872.656799 165.632935 -73.504555 105.500870 881.701050
53 5.766392 125.831482 872.656799 164.733368 -72.382469 106.696480 881.701050
[R_Hip]
51 5.765438 125.836372 -872.654907 22.337265 76.177002 110.337784 881.699829
52 5.765438 125.836372 -872.654907 24.305256 75.167107 112.176552 881.699829
53 5.765438 125.836372 -872.654907 26.030767 74.142937 113.772484 881.699829
[Rear_Leg01]
51 -192.298416 -925.602966 -0.001907 172.850220 -17.858795 -169.733353 945.367432
52 -192.298416 -925.602966 -0.001907 172.287766 -11.371996 -164.954300 945.367432
53 -192.298416 -925.602966 -0.001907 171.875885 -4.818181 -159.824661 945.367432
[Spine1]
51 290.604584 5.007505 0.000477 11.108445 2.768566 6.397445 290.647736
52 290.604584 5.007505 0.000477 10.168294 1.238748 7.702631 290.647736
53 290.604584 5.007505 0.000477 9.193371 -0.269644 9.032968 290.647736
[L_Leg01]
51 761.932007 -0.002384 -0.069261 6.205484 -38.202831 3.555032 761.932068
52 761.932007 -0.002384 -0.069261 6.668603 -38.209431 2.607944 761.932068
53 761.932007 -0.002384 -0.069261 7.666209 -38.251617 0.376958 761.932068
[L_Leg02]
51 1441.140503 -0.000954 -0.000715 1.592340 -0.367283 -133.922607 1441.140503
52 1441.140503 -0.000954 -0.000715 1.645544 -0.378861 -134.282516 1441.140503
53 1441.140503 -0.000954 -0.000715 1.615830 -0.363720 -133.755875 1441.140503
[L_Leg03]
51 1686.963989 -0.000715 -0.000954 0.012201 -0.005306 106.529404 1686.963989
52 1686.963989 -0.000715 -0.000954 0.012194 -0.005323 106.689774 1686.963989
53 1686.963989 -0.000715 -0.000954 0.012186 -0.005340 106.850151 1686.963989
[L_Foot]
51 3041.570068 -30.715107 11.297464 -11.268059 6.635238 47.286247 3041.746094
52 3041.570068 -30.715107 11.297464 -10.678746 6.780704 47.253456 3041.746094
53 3041.570068 -30.715107 11.297464 -9.852750 7.025014 46.921032 3041.746094
[L_Toe1_01]
51 -188.216690 -224.732346 -21.137953 90.040108 -2.759522 -161.321716 293.899567
52 -188.216690 -224.732346 -21.137953 90.165543 -2.944713 -161.887039 293.899567
53 -188.216690 -224.732346 -21.137953 90.335579 -3.230170 -162.856430 293.899567
[L_Toe2_01]
51 200.746536 -219.926590 148.838394 -82.182541 -16.216402 -39.617275 332.896027
52 200.746536 -219.926590 148.838394 -82.526299 -16.684456 -40.021976 332.896027
53 200.746536 -219.926590 148.838394 -82.867432 -17.154797 -40.424713 332.896027
[L_Toe3_01]
51 188.832520 -219.859131 -191.078659 -106.203308 29.309607 -47.320518 347.140900
52 188.832520 -219.859131 -191.078659 -105.937958 28.711380 -47.851269 347.140900
53 188.832520 -219.859131 -191.078659 -105.616043 27.814514 -48.416924 347.140900
[planeAlignerLeft]
51 20.934446 -525.177795 -22.040205 170.534790 -87.170082 97.206848 526.056763
52 25.633945 -525.437805 -15.193687 170.369019 -86.719978 97.015610 526.282104
53 30.333551 -525.697937 -8.347120 170.200104 -86.269859 96.827301 526.638489
[L_Toe1_02]
51 413.761139 0.000477 0.000000 0.001396 -24.406414 0.001396 413.761139
52 413.761139 0.000477 0.000000 0.001393 -24.752211 0.001393 413.761139
53 413.761139 0.000477 0.000000 0.001391 -25.098021 0.001391 413.761139
[L_Toe1_03]
51 464.317322 0.000358 -0.000089 0.002658 37.602257 0.002658 464.317322
52 464.317322 0.000358 -0.000089 0.002757 39.604034 0.002757 464.317322
53 464.317322 0.000358 -0.000089 0.002896 42.148930 0.002896 464.317322
[L_Toe2_02]
51 342.235809 -0.000477 0.000238 0.001180 -78.021431 0.001180 342.235809
52 342.235809 -0.000477 0.000238 0.001180 -77.859131 0.001180 342.235809
53 342.235809 -0.000477 0.000238 0.001180 -77.696808 0.001180 342.235809
[L_Toe2_03]
51 420.210846 -0.000715 0.000000 -179.997269 75.340958 -179.993744 420.210846
52 420.210846 -0.000715 0.000000 -179.997009 76.097008 -179.993484 420.210846
53 420.210846 -0.000715 0.000000 -179.996475 77.499054 -179.992966 420.210846
[L_Toe3_02]
51 329.270111 0.000954 0.000000 0.004493 -83.595093 0.004493 329.270111
52 329.270111 0.000954 0.000000 0.004309 -83.496574 0.004309 329.270111
53 329.270111 0.000954 0.000000 0.004125 -83.398056 0.004125 329.270111
[L_Toe3_03]
51 439.137451 -0.001907 0.000954 179.991562 61.907402 179.998779 439.137451
52 439.137451 -0.001907 0.000954 179.991531 62.132175 179.998734 439.137451
53 439.137451 -0.001907 0.000954 179.991409 62.825623 179.998596 439.137451
[planeLockWeightLeft]
51 1000.000000 0.000000 -0.000214 -0.011826 -0.004376 0.005620 1000.000000
52 1000.000000 0.000000 -0.000218 -0.011826 -0.004376 0.005620 1000.000000
53 1000.000000 0.000000 -0.000223 -0.011826 -0.004376 0.005620 1000.000000
[R_Leg01]
51 761.455627 -0.001907 -0.000358 127.531548 -53.506241 53.083385 761.455688
52 761.455627 -0.001907 -0.000358 128.000610 -50.330711 50.843208 761.455688
53 761.455627 -0.001907 -0.000358 128.156448 -46.738743 48.745071 761.455688
[R_Leg02]
51 1441.140625 0.000000 -0.000238 -1.338868 -0.307002 -131.729553 1441.140625
52 1441.140625 0.000000 -0.000238 -1.695013 -0.514222 -133.681122 1441.140625
53 1441.140625 0.000000 -0.000238 -2.043909 -0.733449 -135.631393 1441.140625
[R_Leg03]
51 1686.963989 0.000954 0.001431 0.086664 -0.047236 133.608765 1686.963989
52 1686.963989 0.000954 0.001431 0.098779 -0.056708 136.779907 1686.963989
53 1686.963989 0.000954 0.001431 0.110344 -0.066829 139.948624 1686.963989
[R_Foot]
51 3041.560059 -30.531288 -11.204481 -0.128244 -6.801138 48.723667 3041.734131
52 3041.560059 -30.531288 -11.204481 -1.238524 -7.284217 48.719204 3041.734131
53 3041.560059 -30.531288 -11.204481 -2.350128 -7.767349 48.724182 3041.734131
[planeAlignerRight]
51 -34.555794 -760.598999 -95.180298 -36.765720 -84.995903 -56.423603 767.309814
52 -43.574318 -746.172913 -115.211411 -36.760693 -83.690895 -57.224567 756.271362
53 -52.592873 -731.746765 -135.242615 -36.894302 -82.386139 -57.888046 745.995972
[R_Toe1_01]
51 -188.383347 -224.864899 21.052242 87.131737 -2.418341 -153.996033 294.101532
52 -188.383347 -224.864899 21.052242 85.917648 -2.197174 -155.937012 294.101532
53 -188.383347 -224.864899 21.052242 84.695869 -2.017125 -157.883652 294.101532
[R_Toe2_01]
51 200.637817 -220.002121 -148.787384 -98.984894 7.010134 -55.932426 332.857574
52 200.637817 -220.002121 -148.787384 -98.772720 8.952502 -56.338696 332.857574
53 200.637817 -220.002121 -148.787384 -98.507553 11.385654 -56.727131 332.857574
[R_Toe3_01]
51 188.606735 -220.092957 191.126343 -62.217381 -25.555851 -71.626617 347.192566
52 188.606735 -220.092957 191.126343 -63.037277 -23.870457 -71.887787 347.192566
53 188.606735 -220.092957 191.126343 -63.855499 -22.188118 -72.171806 347.192566
[planeLockWeightRight]
51 999.999939 0.000000 -0.000241 -0.011823 -0.004379 -0.000027 999.999939
52 999.999939 0.000000 -0.000236 -0.011823 -0.004379 -0.000027 999.999939
53 999.999939 0.000000 -0.000231 -0.011823 -0.004379 -0.000027 999.999939
[R_Toe1_02]
51 413.762085 0.000477 -0.000119 0.001386 -25.732090 0.001386 413.762085
52 413.762085 0.000477 -0.000119 0.001387 -25.643551 0.001387 413.762085
53 413.762085 0.000477 -0.000119 0.001387 -25.555010 0.001387 413.762085
[R_Toe1_03]
51 464.317810 0.000000 0.001088 0.004310 58.381344 0.004310 464.317810
52 464.317810 0.000000 0.001088 0.004529 59.942719 0.004529 464.317810
53 464.317810 0.000000 0.001088 0.004770 61.503811 0.004770 464.317810
[R_Toe2_02]
51 342.234741 -0.000954 0.000238 0.001209 -62.076641 0.001209 342.234741
52 342.234741 -0.000954 0.000238 0.001208 -62.837475 0.001208 342.234741
53 342.234741 -0.000954 0.000238 0.001206 -63.598309 0.001206 342.234741
[R_Toe2_03]
51 420.210846 0.000715 -0.000268 -0.004387 64.379311 -0.000800 420.210846
52 420.210846 0.000715 -0.000268 -0.004518 65.665092 -0.000939 420.210846
53 420.210846 0.000715 -0.000268 -0.004663 66.950851 -0.001093 420.210846
[R_Toe3_02]
51 329.270355 -0.000477 -0.000954 -0.002385 -63.856766 -0.002385 329.270355
52 329.270355 -0.000477 -0.000954 -0.001783 -65.029419 -0.001783 329.270355
53 329.270355 -0.000477 -0.000954 -0.001183 -66.202660 -0.001183 329.270355
[R_Toe3_03]
51 439.137939 0.000238 0.001431 0.004992 62.801693 0.004992 439.137939
52 439.137939 0.000238 0.001431 0.005309 64.456017 0.005309 439.137939
53 439.137939 0.000238 0.001431 0.005796 66.618576 0.005796 439.137939
[Rear_Leg02]
51 1162.777710 -0.029802 0.005960 17.209915 -5.048805 -147.778519 1162.777710
52 1162.777710 -0.029802 0.005960 17.122221 -3.258546 -153.515656 1162.777710
53 1162.777710 -0.029802 0.005960 16.592197 -3.023139 -154.703293 1162.777710
[Rear_Leg03]
51 607.192505 -0.013351 -0.073195 0.009891 -0.006190 80.432861 607.192505
52 607.192505 -0.013351 -0.073195 0.009864 -0.006234 80.939011 607.192505
53 607.192505 -0.013351 -0.073195 0.009862 -0.006237 80.978027 607.192505
[Rear_Leg04]
51 995.874512 -0.020504 -0.011921 -0.042014 -0.015644 104.972839 995.874573
52 995.874512 -0.020504 -0.011921 -0.042551 -0.014119 109.106499 995.874573
53 995.874512 -0.020504 -0.011921 -0.042592 -0.013995 109.440132 995.874573
[Rear_Foot]
51 3096.176270 -0.067472 -0.041425 -128.953079 66.767067 20.798330 3096.176270
52 3096.176270 -0.067472 -0.041425 -122.463516 69.290245 28.548677 3096.176270
53 3096.176270 -0.067472 -0.041425 -116.640129 71.087326 36.407608 3096.176270
[planeAlignerCenter]
51 -66.045959 -15.825272 -893.651245 3.194658 -0.001613 179.998306 896.228271
52 -45.590908 49.349861 -933.787109 3.579487 -0.001608 179.998291 936.200989
53 -25.658033 110.316437 -970.661438 3.964376 -0.001602 179.998291 977.247009
[Rear_Toe1_01]
51 0.653352 83.966492 -371.173737 3.814373 33.985008 95.239418 380.553192
52 0.653352 83.966492 -371.173737 2.627044 36.517544 93.610008 380.553192
53 0.653352 83.966492 -371.173737 1.752925 39.413383 92.370285 380.553192
[Rear_Toe2_01]
51 178.200760 -294.826019 -362.060547 -4.267544 57.794472 -75.591911 499.765686
52 178.200760 -294.826019 -362.060547 -0.547987 61.045696 -70.082176 499.765686
53 178.200760 -294.826019 -362.060547 5.319089 63.953842 -62.408489 499.765686
[Rear_Toe3_01]
51 -153.359680 -308.780914 -362.060852 -4.276149 56.954556 -117.866867 499.952881
52 -153.359680 -308.780914 -362.060852 -5.986948 60.093643 -119.682480 499.952881
53 -153.359680 -308.780914 -362.060852 -8.097255 63.197010 -121.896011 499.952881
[planeLockWeightCenter]
51 0.000000 0.000267 -0.000019 -0.011814 -0.004373 -0.000015 0.000268
52 0.000000 0.000229 -0.000038 -0.011814 -0.004373 -0.000015 0.000232
53 0.000000 0.000191 -0.000057 -0.011814 -0.004373 -0.000015 0.000199
[Rear_Toe1_02]
51 379.707825 0.194073 0.000477 -0.006723 -29.912052 -0.006723 379.707855
52 379.707825 0.194073 0.000477 -0.004669 -31.417398 -0.004669 379.707855
53 379.707825 0.194073 0.000477 -0.002644 -32.922749 -0.002644 379.707855
[Rear_Toe1_03]
51 500.129700 0.165701 0.000119 -179.994919 70.045586 -179.998459 500.129761
52 500.129700 0.165701 0.000119 -179.991364 80.419716 -179.994873 500.129761
53 500.129700 0.165701 0.000119 0.020248 88.219406 0.018491 500.129761
[Rear_Toe2_02]
51 340.494507 0.000238 -0.000954 0.001167 -89.266983 0.001180 340.494507
52 340.494507 0.000238 -0.000954 0.000000 -89.882965 0.002347 340.494507
53 340.494507 0.000238 -0.000954 0.000000 -89.960434 -0.002347 340.494507
[Rear_Toe2_03]
51 433.103577 0.000000 0.000238 -179.995071 68.980400 -179.998627 433.103546
52 433.103577 0.000000 0.000238 -179.995361 66.810081 -179.998932 433.103546
53 433.103577 0.000000 0.000238 -179.995407 66.378067 -179.998978 433.103546
[Rear_Toe3_02]
51 340.494141 -0.000358 -0.000477 0.001174 -86.819183 0.001174 340.494171
52 340.494141 -0.000358 -0.000477 0.001174 -88.278076 0.001174 340.494171
53 340.494141 -0.000358 -0.000477 0.001174 -89.107590 0.001174 340.494171
[Rear_Toe3_03]
51 433.103577 0.001431 -0.000238 -179.996918 76.367592 -179.993393 433.103546
52 433.103577 0.001431 -0.000238 -179.998077 72.093941 -179.994537 433.103546
53 433.103577 0.001431 -0.000238 -179.998550 69.539238 -179.994995 433.103546
[Back_Bone]
51 1312.175781 -701.934692 0.000954 -0.209525 1.504539 -84.356560 1488.125488
52 1312.175781 -701.934692 0.000954 0.068148 1.147680 -84.830109 1488.125488
53 1312.175781 -701.934692 0.000954 0.348712 0.793155 -85.305298 1488.125488
[Head]
51 1406.159424 809.709290 0.001431 2.183058 -9.069892 5.961733 1622.625488
52 1406.159424 809.709290 0.001431 2.074690 -8.729703 6.055468 1622.625488
53 1406.159424 809.709290 0.001431 1.966969 -8.389301 6.148477 1622.625488
[Motor_Bone]
51 1158.364380 -417.834747 0.000477 -2.203643 -0.253251 -106.241302 1231.419434
52 1158.364380 -417.834747 0.000477 -2.687923 0.131920 -105.851540 1231.419434
53 1158.364380 -417.834747 0.000477 -5.513591 1.191221 -104.796608 1231.419434
[Ping_Mechanism]
51 1311.445435 -470.561401 6.474188 0.000103 -0.000053 82.120995 1393.326660
52 1304.408081 -468.421356 10.709819 0.000103 -0.000053 82.120995 1386.006348
53 1296.221436 -465.502228 16.567421 0.000103 -0.000053 82.120995 1377.373291
[BN_LookIK]
51 193.241119 1380.371704 -0.002861 0.000000 89.965736 -31.038179 1393.832153
52 193.241119 1380.371704 -0.002861 0.000000 89.965736 -31.038179 1393.832153
53 193.241119 1380.371704 -0.002861 0.000000 89.965736 -31.038179 1393.832153
[bottomMouth]
51 -435.092926 615.759399 -0.000954 -0.000022 0.000016 73.527184 753.966492
52 -435.092926 615.759399 -0.000954 -0.000022 0.000016 73.527184 753.966492
53 -435.092926 615.759399 -0.000954 -0.000022 0.000016 73.527184 753.966492
[L_Mouth01]
51 554.440979 7.658243 838.222046 150.204178 23.759130 109.605339 1005.027161
52 554.440979 7.658243 838.222046 150.204178 23.759130 109.605339 1005.027161
53 554.440979 7.658243 838.222046 150.204178 23.759130 109.605339 1005.027161
[L_mouthFront]
51 551.629089 934.514771 339.150421 0.000081 2.804060 79.119301 1136.941284
52 551.629089 934.514771 339.150421 0.000081 2.804060 79.119301 1136.941284
53 551.629089 934.514771 339.150421 0.000081 2.804060 79.119301 1136.941284
[mouthGun]
51 55.332661 1627.420898 0.000000 0.000023 0.000009 -11.038128 1628.361328
52 55.332661 1627.420898 0.000000 0.000023 0.000009 -11.038128 1628.361328
53 55.332661 1627.420898 0.000000 0.000023 0.000009 -11.038128 1628.361328
[R_Mouth01]
51 554.442383 7.659197 -838.223938 29.795891 -23.759109 109.605331 1005.029541
52 554.442383 7.659197 -838.223938 29.795891 -23.759109 109.605331 1005.029541
53 554.442383 7.659197 -838.223938 29.795891 -23.759109 109.605331 1005.029541
[R_mouthFront]
51 551.629089 934.514282 -339.151367 0.000029 -2.803930 79.119133 1136.941162
52 551.629089 934.514282 -339.151367 0.000029 -2.803930 79.119133 1136.941162
53 551.629089 934.514282 -339.151367 0.000029 -2.803930 79.119133 1136.941162
[TopMouth]
51 461.269867 -56.106091 -0.008583 -0.000059 -0.000268 92.025169 464.669525
52 461.269867 -56.106091 -0.008583 -0.000059 -0.000268 92.025169 464.669525
53 461.269867 -56.106091 -0.008583 -0.000059 -0.000268 92.025169 464.669525
[weapon_bone]
51 -987.239868 1448.372803 0.001431 0.000000 89.965736 -31.038221 1752.833740
52 -987.239868 1448.372803 0.001431 0.000000 89.965736 -31.038221 1752.833740
53 -987.239868 1448.372803 0.001431 0.000000 89.965736 -31.038221 1752.833740
